<svg id="Layer_1" height="512" viewBox="0 0 512 512" width="512" xmlns="http://www.w3.org/2000/svg" data-name="Layer 1"><path d="m418.7 40.2-39.17-3.31a10.69 10.69 0 0 1 -1.92-.34l-.05.17.89 58.46 31.18 9.77 9.1-64.72z" fill="#8c8448"/><path d="m456.88 50.31-38.15-10.08-9.1 64.72 42.79 4.38 5.44-58.82.01-.05a8.458 8.458 0 0 1 -.99-.15z" fill="#706a37"/><path d="m385.74 97.47 23.89 7.48s-27.63 29.86-51.03 106.13c-15.4 50.16-93.8 165.09-184.09 183.05a630.456 630.456 0 0 0 -61.96 15.32c-1.2-.06-47.71-2.41-66.97-25.91a13.533 13.533 0 0 1 -2.26-3.98l-4.96-13.87c223.81 52.08 347.38-268.22 347.38-268.22z" fill="#f9d438"/><path d="m378.45 95.18 7.29 2.29s-123.57 320.3-347.38 268.22a13.08 13.08 0 0 1 .59-10.19c13.67-27.84 60.33-36.18 123.93-48.94 73.41-14.74 98.92-62.56 132.85-108.02 32.08-42.98 72.6-97.27 82.72-103.36z" fill="#ffe05f"/><path d="m112.55 409.45a630.456 630.456 0 0 1 61.96-15.32c90.29-17.96 168.69-132.89 184.09-183.05 23.4-76.27 51.03-106.13 51.03-106.13l20.74 2.12s14.29 351.25-388.21 353.48l-3.46-9.67a5.585 5.585 0 0 1 .81-5.28c5.63-7.37 26.4-21.81 73.04-36.15z" fill="#ffe05f"/><path d="m452.42 109.33s81.61 173.04-69.67 308.6c-141.35 126.67-312.56 63.24-334.41 54.38a5.553 5.553 0 0 1 -3.16-3.31l-3.02-8.45c402.5-2.23 388.21-353.48 388.21-353.48z" fill="#f9d438"/><path d="m181.88 322.56c73.41-14.74 98.92-62.56 132.85-108.02 13.242-17.742 27.921-37.408 41.308-54.819 19.617-36.117 29.7-62.251 29.7-62.251l-7.29-2.29c-10.12 6.09-50.64 60.38-82.72 103.36-33.928 45.46-59.438 93.28-132.848 108.02-63.6 12.76-110.26 21.1-123.93 48.94a13.08 13.08 0 0 0 -.59 10.19q10.482 2.439 20.669 3.81c14.902-26.241 60.808-34.492 122.851-46.94z" fill="#e2c754"/><path d="m395 38.16-15.25-1.27a11.947 11.947 0 0 1 -2.03-.34l-.105.17 1.085 58.46 16.3 5.048z" fill="#605930"/><path d="m382.27 16.17a10.464 10.464 0 0 0 -4.66 20.38 10.69 10.69 0 0 0 1.92.34l39.17 3.31 3.56-16.77z" fill="#7a713c"/><path d="m461.35 31.01a9.912 9.912 0 0 1 -2.48 19.5c-.33 0-.67-.02-1-.05a8.458 8.458 0 0 1 -.99-.15l-32.18-6.59a10.672 10.672 0 0 1 -5.97-3.49v-.03h-.03a10.789 10.789 0 0 1 3.56-16.77 10.635 10.635 0 0 1 4.59-1.04 10.5 10.5 0 0 1 2.71.35z" fill="#685f31"/><path d="m386.105 29.417a10.835 10.835 0 0 1 9.846-10.763l-13.681-2.484a10.464 10.464 0 0 0 -4.66 20.38 10.69 10.69 0 0 0 1.92.34l10.544.891a10.868 10.868 0 0 1 -3.969-8.364z" fill="#5e562e"/></svg>