<svg id="Layer_1" height="512" viewBox="0 0 512 512" width="512" xmlns="http://www.w3.org/2000/svg" data-name="Layer 1"><path d="m382.55 183.29a41 41 0 0 0 -7-8.94c-.79-.76-1.6-1.49-2.45-2.19l-39.29-32.35a40.379 40.379 0 0 0 -8.29-5.3v-.01a37.023 37.023 0 0 0 -6.25-2.36c-2.24-.62-4.44-1.13-6.62-1.52l-.13.7c3.683 9.272 4.875 18.557 11.813 27.013l12 12c38.838 27.184 39.917 22.457 50.847 24.867a41.073 41.073 0 0 0 -4.63-11.91z" fill="#cc844e"/><path d="m382.61 183.29a41.138 41.138 0 0 0 -7.03-8.94c-.79-.76-1.615-1.49-2.465-2.19l-39.057-32.35c-2.55-2.1-6.058-3.89-8.058-5.3v-.01a39.579 39.579 0 0 0 -6.49-2.36c-2.24-.62-4.56-1.13-6.74-1.52l-.19.7c3.683 9.272 4.845 18.557 11.784 27.013l7.982 8-4.508-13.269a3.829 3.829 0 0 1 4.6-4.941l.067.019a39.579 39.579 0 0 1 6.495 2.358v.01c2 1.41 5.5 3.2 8.05 5.3l37.381 30.877c-.531-1.157-1.179-2.293-1.821-3.397z" fill="#b76f3e"/><path d="m466.23 136-83.67 47.29h-.01a41 41 0 0 0 -7-8.94l59.58-59.14z" fill="#92af64"/><path d="m434.14 78.71-67.93 87.81.54.41 6.35 5.23c.85.7 1.66 1.43 2.45 2.19l97.89-97.17z" fill="#bad79d"/><path d="m428.49 19.94-83.09 154.86a112.076 112.076 0 0 0 9.26 6.65l11.55-14.93 67.93-87.81 30.67-60.82z" fill="#91ba72"/><path d="m391.46 16-14.8 46.03-35.9 83.51-8.69 16.75a114.254 114.254 0 0 0 9.34 9.18q1.98 1.725 3.99 3.33l65.62-122.09z" fill="#bad79d"/><path d="m359.2 44.76-33.68 89.74v.01a40.379 40.379 0 0 1 8.29 5.3l6.95 5.73 40.8-78.67z" fill="#91ba72"/><path d="m387.18 195.2a100.7 100.7 0 0 1 -32.52-13.75 112.076 112.076 0 0 1 -9.26-6.65q-2.01-1.605-3.99-3.33a114.254 114.254 0 0 1 -9.34-9.18 103.213 103.213 0 0 1 -19.55-30.97l.13-.7c-28.96-5.3-52.9 8.82-74.9 33.62-16.65 18.74-32.19 43.59-47.96 70.77-10.17 17.54-20.45 36.05-31.18 54.52q-7.83 13.47-15.8 26.87c-16.11 27.1-32.35 53.56-47.15 77.24-25.43 40.7-46.58 73.2-55.43 86.72a10.2 10.2 0 0 0 -1.67 5.59 10.09 10.09 0 0 0 2.82 7.01 9.956 9.956 0 0 0 11.73 1.93c49.9-25.59 86.72-50.25 118.1-72.96 26.32-19.03 48.8-36.7 71.95-52.36 1.7-1.15 3.38-2.29 5.04-3.44 36.67-25.14 64.03-47.68 84.34-67.65 23.38-22.98 37.41-42.55 45.54-58.8 6.54-13.08 9.25-24 9.91-32.8a40.679 40.679 0 0 0 -.81-11.68z" fill="#dd9057"/><path d="m115.66 413.64c14.8-23.68 31.04-50.14 47.15-77.24q7.95-13.365 15.8-26.87c10.73-18.47 21.01-36.98 31.18-54.52 15.77-27.18 31.31-52.03 47.96-70.77 19.283-21.738 40.058-35.268 64.4-34.709a98.888 98.888 0 0 1 -9.626-18.211l.13-.7c-28.96-5.3-52.9 8.82-74.9 33.62-16.65 18.74-32.19 43.59-47.96 70.77-10.17 17.54-20.45 36.05-31.18 54.52q-7.83 13.47-15.8 26.87c-16.11 27.1-32.35 53.56-47.15 77.24-25.43 40.7-46.58 73.2-55.43 86.72a10.2 10.2 0 0 0 -1.67 5.59 10.09 10.09 0 0 0 2.82 7.01 9.956 9.956 0 0 0 11.73 1.93q8.373-4.293 16.256-8.55c10.876-16.765 27.399-42.466 46.29-72.7z" fill="#b27042"/><g fill="#965e38"><path d="m275.91 200.35c-19.723-15.094-33.66-38.324-33.861-38.661a4.944 4.944 0 0 0 -.942-1.123c-1.124 1.2-2.244 2.419-3.357 3.674-1.149 1.293-2.292 2.622-3.431 3.972 3.479 5.556 16.859 25.8 35.514 40.08a5 5 0 0 0 6.077-7.942z"/><path d="m166.823 349.668a5 5 0 1 0 6.393-7.689c-18.564-15.437-26.01-27.966-26.083-28.09a4.945 4.945 0 0 0 -1.79-1.771c-.846 1.426-1.687 2.859-2.533 4.282q-1.43 2.4-2.859 4.8c3.111 4.6 11.372 15.579 26.872 28.468z"/><path d="m220.032 271.369a5 5 0 0 0 3.145-8.889c-19.064-15.4-29.145-30.121-29.244-30.268a4.949 4.949 0 0 0 -1.635-1.5q-1.252 2.142-2.508 4.3c-.913 1.575-1.828 3.166-2.744 4.756a174.293 174.293 0 0 0 29.847 30.492 4.976 4.976 0 0 0 3.139 1.109z"/><path d="m297.053 261.3a5 5 0 0 0 -8.512 5.247c.516.838 12.772 20.394 40.248 35.568q1.913-1.833 3.751-3.639c1.2-1.184 2.368-2.353 3.524-3.519a4.976 4.976 0 0 0 -1.157-.888c-25.883-13.885-37.678-32.485-37.854-32.769z"/><path d="m251.106 362.061c-24.73-17.649-33.108-33.125-33.227-33.348a5 5 0 0 0 -8.871 4.616c.362.7 9.016 17.01 34.806 35.8q2.213-1.5 4.386-2.994c1.388-.951 2.736-1.892 4.1-2.836a4.94 4.94 0 0 0 -1.194-1.238z"/><path d="m119.231 410.505c-15.4-11.608-18.2-16.639-18.616-17.55a5 5 0 0 0 -2.313-3.547q-1.328 2.13-2.642 4.232-1.617 2.588-3.206 5.124c3.047 5 9.982 11.6 20.758 19.726a5 5 0 1 0 6.019-7.985z"/><path d="m344.14 206.157a5 5 0 0 0 -8.769 4.806c.4.731 10.091 18.058 40.379 33.142.819-1.5 1.607-2.98 2.33-4.425.768-1.537 1.479-3.041 2.145-4.518-27.11-13.497-35.937-28.743-36.085-29.005z"/><path d="m173.874 417.693c-4.461-2.8-11.836-12.628-15.437-18.163a5 5 0 0 0 -8.384 5.451c1 1.54 9.435 14.336 16.872 20.036q2.157-1.55 4.285-3.087c1.36-.984 2.7-1.961 4.045-2.937a4.965 4.965 0 0 0 -1.381-1.3z"/></g></svg>