<svg id="Layer_1" height="512" viewBox="0 0 512 512" width="512" xmlns="http://www.w3.org/2000/svg" data-name="Layer 1"><path d="m244.43 441.37-125.6-90.9s-47.32 22.5-33.39 44.49 14.62 9.38 26.69 29.16 25.35 15.54 36.34 36.24 88.96 19.91 110.71-2.84a29.624 29.624 0 0 1 -14.75-16.15z" fill="#769e4e"/><path d="m179.55 111.2c-10.26-7.4-8.23-31.08-8.04-33.04-.14 1.02-2 7.93-26.76 23.94-26.95 17.41-7.16 75.85-7.16 75.85l40.83-21.91a43.066 43.066 0 0 0 8.77-6.25l30.77-8.19c7.76-18.97-23.33-19.53-38.41-30.4z" fill="#769e4e"/><path d="m495.12 209.82c-4.27 3.43-17.44 25.07-37.05 18.24-8.76-3.06-18.51 3.95-24.15 10.69-1.42 3.42-4.08 6.16-6.95 9.55-7.48 8.85-2.29 23.14-14.77 31.87l.01.01 24.45 61.78a28.75 28.75 0 0 1 2.19 7.23c-.31-2.7-.94-17.95 21.14-33.38 44.82-31.33 35.13-105.99 35.13-105.99z" fill="#99b756"/><path d="m359.94 80.26c-12.85-21.77-13.64-45.06-13.64-45.06-11.65 23.57-19.2 15.94-57.02 36.24s-29.55 55.44-29.55 55.44l80.33 14.26 34.64 21.51c16.85-32.65-1.92-60.62-14.76-82.39z" fill="#436f1e"/><path d="m395.57 397.9h-.01c-3.93 1.99-7.49 3.69-10.32 5.08 0 0-3.94 18.31-21.73 17.77-17.37-.53-30.28 12.91-30.9 13.57l-.02.02c-1.08 1.73-2.27 3.46-3.52 5.2a56.9 56.9 0 0 1 -33.04 22.19s17.42 25.19 80.57 10.43c62.66-14.64 89.42-92.25 89.83-93.47l-25.448 18.525z" fill="#436f1e"/><path d="m72.35 173.01c-27.21 9.55-49.52-7.88-49.52-7.88s-22.49 28.84 14.15 53.82c27.82 18.97 21.43 44.82 39.17 63.63s28.45 17.25 28.45 17.25h.01l16.54-23.36.42-.46 10.68-80.27s-32.7-32.29-59.9-22.73z" fill="#99b756"/><path d="m360.04 274.85c-6.02-26.48-13.62-16.24-11.28-37.97.94-8.68-15.99-12.35-9.41-21.89a23.288 23.288 0 0 0 4.33-15.4s-7.52 1.33-20.7-7.26c-1.44-.95-2.95-2.01-4.52-3.2-15.96-12.11-14.11.55-34.98 6.84-6.34 1.91-10.84 2.91-13.99 3.92-7.24 2.31-7.37 4.67-6.33 18.06 1.37 17.53-22.22 15.47-16.73 29a22.944 22.944 0 0 0 2.44 4.38c10.52 15.27 7.72 22.93 13.26 33.48a42.086 42.086 0 0 0 4.8 7.14c12.1 14.8 17.11 6.34 26.51 18.09s16.76 12.9 30.43 4.18c10.47-6.68 18.38 6.84 31.18-4.14 3.91-3.35 8.28-9 13.32-18.23v-.01c-3.65-1.69-5.96-6.59-8.33-16.99z" fill="#e0e0c1"/><path d="m423.117 304.51a5 5 0 0 1 -1.876-9.637c36.441-14.735 41.941-45.135 42.157-46.422a5 5 0 0 1 9.87 1.606c-.243 1.509-6.43 37.165-48.278 54.087a5 5 0 0 1 -1.873.366z" fill="#798e42"/><path d="m334.237 135.349a5 5 0 0 1 -4.544-7.08c8.169-17.868 5.584-50.025 5.557-50.348a5 5 0 0 1 9.965-.836c.12 1.425 2.819 35.117-6.427 55.342a5 5 0 0 1 -4.551 2.922z" fill="#335115"/><path d="m178.51 162.12a4.985 4.985 0 0 1 -3.151-1.12c-5.19-4.218-9.74-12.494-13.525-24.6a146.326 146.326 0 0 1 -4.074-16.342 5 5 0 0 1 9.847-1.746c1.888 10.62 7.374 29.492 14.06 34.926a5 5 0 0 1 -3.157 8.88z" fill="#59723b"/><path d="m105.6 234.321a5.007 5.007 0 0 1 -.5-.025c-8.1-.808-19.586-6.068-34.135-15.633-10.529-6.924-18.746-13.528-19.091-13.806a5 5 0 0 1 6.275-7.787c8.864 7.14 34.755 25.96 47.944 27.276a5 5 0 0 1 -.491 9.975z" fill="#7c9143"/><path d="m168.646 421.594c-.107 0-.214 0-.323-.011-1.334-.084-32.992-2.347-59.307-25.188a5 5 0 1 1 6.554-7.552c23.794 20.652 53.1 22.742 53.39 22.761a5 5 0 0 1 -.314 9.99z" fill="#5a7738"/><path d="m338.627 451.85a66.705 66.705 0 0 1 -18.006-2.347 5 5 0 1 1 2.694-9.63c36.248 10.142 83.971-22.112 84.449-22.439a5 5 0 0 1 5.653 8.248c-1.802 1.236-38.647 26.168-74.79 26.168z" fill="#335115"/><path d="m241.08 351.38a88.015 88.015 0 0 1 -11.42.95 25.23 25.23 0 0 1 -17.23-6.45c-18.27-16.11-27.97 2.37-39.1-10.57-15.73-18.3-1.17-20.09-3.98-39.35-.79-5.43 1.77-9.55 5.85-12.67.05-.03.08-.05.08-.05 10.01-7.59 28.98-9.16 29.71-9.22h.02c2.21-.08 4.49-.8 8.62-2.84 11.65-5.73 19.04-21.15 32.8-24.23a22.944 22.944 0 0 0 2.44 4.38c10.52 15.27 7.72 22.93 13.26 33.48-7.68 25.41 20.56 24.03-4.24 58.87-3.11 4.37-9.8 6.6-16.81 7.7z" fill="#cacba9"/><path d="m374.7 162.65c3.09 1.43 6.24 2.43 8.55 7.35-10.44 1.87-18.4 13.3-28.63 14.7-10.02 1.37-11.55 8.68-10.94 14.89 0 0-7.52 1.33-20.7-7.26l.01-.01s-7.04-10.85 13.9-42.23a16.871 16.871 0 0 0 3.17-8.95s22.3-8.21 25.24 6.93c2.03 10.51 5.68 12.85 9.4 14.58z" fill="#bfbfb0"/><path d="m175.2 283.29c-1.26.79-16.1 9.78-25.28.73-12.22-12.03-21.72-4.36-28.35-8.01l-.42.46c-8.26 8.3-13.54 16.09-16.54 23.36-8.86 21.41 1.92 38.37 14.22 50.64 7.92 7.9 16.47 13.86 20.82 17.8 13.4 12.15 31.89-1.39 27.8-13.68s5.88-19.28 5.88-19.28c-15.73-18.3-1.17-20.09-3.98-39.35-.79-5.43 1.77-9.55 5.85-12.67z" fill="#e0e0c1"/><g fill="#f7f6df"><path d="m241.08 351.38a88.015 88.015 0 0 1 -11.42.95 25.23 25.23 0 0 1 -17.23-6.45c-18.27-16.11-27.97 2.37-39.1-10.57 0 0-9.97 6.99-5.88 19.28s-14.4 25.83-27.8 13.68c0 0-6.48 37.5 26.99 50.32a58.773 58.773 0 0 0 10.04 2.82c44.73 8.6 29.53 38.78 67.75 19.96-4.99-12.12-6.38-26.66 1.94-42.17 0 0-13.89-3.97-2.91-17.93 10.79-13.72-1.94-29.36-2.38-29.89z"/><path d="m235.01 158.87a14.794 14.794 0 0 1 .22-9.86 49.686 49.686 0 0 0 -17.27-7.41c-9.05-1.91-20.37-1.23-30.77 8.19a43.066 43.066 0 0 1 -8.77 6.25c-17.45 9.28-30.33-1.72-40.83 21.91-4.09 9.21-5.53 14.27-5.34 17.79.35 6.96 7.04 7.86 11.97 22.86 7.43 22.58-6.53 23.57 13.21 29.92s3.73 23.86 25.66 23.77c14.13-.05 17.9 1.88 21.9 1.73h.02c2.21-.08 4.49-.8 8.62-2.84 11.65-5.73 19.04-21.15 32.8-24.23-5.49-13.53 18.1-11.47 16.73-29-1.04-13.39-.91-15.75 6.33-18.06-4.87-26.09-23.43-7-34.48-41.02z"/><path d="m413.45 190.95c-12.89-18.26-22.26-22.37-30.2-20.95-10.44 1.87-18.4 13.3-28.63 14.7-10.02 1.37-11.55 8.68-10.94 14.89a23.288 23.288 0 0 1 -4.33 15.4c-6.58 9.54 10.35 13.21 9.41 21.89-2.34 21.73 5.26 11.49 11.28 37.97 2.37 10.4 4.68 15.3 8.33 16.99 5.63 2.63 14.42-2.38 31.45-6.49a35.916 35.916 0 0 0 12.38-5.18c12.48-8.73 7.29-23.02 14.77-31.87 2.87-3.39 5.53-6.13 6.95-9.55 3.15-7.61.13-18.61-20.47-47.8z"/></g><path d="m438.89 349.47c3.33 22.36-24.35 38.82-43.32 48.43h-.01c-3.93 1.99-7.49 3.69-10.32 5.08-17.97 8.85-34.63-30.93-30.24-42.4s-15.13-18.59-4.18-27.33 4.23-23.17 4.23-23.17c3.91-3.35 8.28-9 13.32-18.23v-.01c5.63 2.63 14.42-2.38 31.45-6.49a35.916 35.916 0 0 0 12.38-5.18l.01.01c6.37-2.66 8.98 5.52 11.91 18.33 2.76 12.1 5.8 28.33 12.54 43.45a28.75 28.75 0 0 1 2.19 7.23c.01.12.03.21.04.28z" fill="#cacba9"/><path d="m269.49 199.89c3.15-1.01 7.65-2.01 13.99-3.92 20.87-6.29 19.02-18.95 34.98-6.84 1.57 1.19 3.08 2.25 4.52 3.2l.01-.01s-7.04-10.85 13.9-42.23a16.871 16.871 0 0 0 3.17-8.95c.13-4.57-2.21-8.52-5.82-11.8-5.28-4.8-13.28-8.15-20.34-9.88-18.29-4.47-37.56-1.44-54.17 7.42-10.51 5.6-21.3 13.24-24.5 22.13a14.794 14.794 0 0 0 -.22 9.86c11.05 34.02 29.61 14.93 34.48 41.02z" fill="#e2e2cf"/><path d="m355 360.58c4.39-11.46-15.13-18.59-4.18-27.33s4.23-23.17 4.23-23.17c-12.8 10.98-20.71-2.54-31.18 4.14-13.67 8.72-21.04 7.56-30.43-4.18s-14.41-3.29-26.51-18.09a42.086 42.086 0 0 1 -4.8-7.14c-7.68 25.41 20.56 24.03-4.24 58.87-3.11 4.37-9.8 6.6-16.81 7.7.44.53 13.17 16.17 2.38 29.89-10.98 13.96 2.91 17.93 2.91 17.93a62.624 62.624 0 0 1 5.25-8.18c17.3-23.03 32.12 13.92 46.58.06 19.95-19.12 34.09-1.09 40.1 19.39 2.33 7.93-.62 15.81-5.69 23.85.62-.66 13.53-14.1 30.9-13.57 17.79.54 21.73-17.77 21.73-17.77-17.97 8.85-34.63-30.93-30.24-42.4z" fill="#e2e2cf"/><path d="m183.09 272.29c-21.93.09-5.92-17.43-25.66-23.77s-5.78-7.34-13.21-29.92c-4.93-15-11.62-15.9-11.97-22.86 0 0-34.81 13.84-28.66 32.58h.01a18.342 18.342 0 0 0 2.33 4.64c14.34 21.06 3.6 13.24 9.72 33.69 1.61 5.41 3.59 8.08 5.92 9.36 6.63 3.65 16.13-4.02 28.35 8.01 9.18 9.05 24.02.06 25.28-.73.05-.03.08-.05.08-.05 10.01-7.59 28.98-9.16 29.71-9.22-4 .15-7.77-1.78-21.9-1.73z" fill="#e2e2cf"/><path d="m196.64 418.589c-33.47-12.82-26.99-50.321-26.99-50.321-1.039-.942-2.323-2-3.775-3.172a17.114 17.114 0 0 1 -26.225 3.174s-6.48 37.5 26.99 50.32a58.773 58.773 0 0 0 10.04 2.82c44.268 8.511 29.846 38.15 66.591 20.52-6.641-6.256-13.914-16.161-36.591-20.521a58.773 58.773 0 0 1 -10.04-2.82z" fill="#c9c7b1"/><path d="m167.59 177.95c10.5-23.63 23.38-12.63 40.83-21.91a43.066 43.066 0 0 0 8.77-6.25 36.116 36.116 0 0 1 8.54-5.812 47.081 47.081 0 0 0 -7.77-2.378c-9.05-1.91-20.37-1.23-30.77 8.19a43.066 43.066 0 0 1 -8.77 6.25c-17.45 9.28-30.33-1.72-40.83 21.91-4.09 9.21-5.53 14.27-5.34 17.79.261 5.187 4.043 7.012 7.994 13.812 8.706-8.46 22.006-13.972 22.006-13.972-.19-3.52 1.25-8.42 5.34-17.63z" fill="#c9c7b1"/><path d="m134.61 299.82a67.572 67.572 0 0 1 12.066-18.6c-10.668-7.936-19.075-1.894-25.106-5.214l-.42.46c-8.26 8.3-13.54 16.09-16.54 23.36-8.86 21.41 1.92 38.37 14.22 50.64 7.92 7.9 16.47 13.86 20.82 17.8a17.114 17.114 0 0 0 26.225-3.174 203.7 203.7 0 0 1 -17.045-14.631c-12.3-12.261-23.08-29.231-14.22-50.641z" fill="#bab999"/><path d="m146.676 281.224q2.076-2.358 4.474-4.774l.42-.48c-2.33-1.28-4.31-3.99-5.92-9.4-6.12-20.45 4.62-12.71-9.72-33.77a13.585 13.585 0 0 1 -2.33-4.8h-.01c-2.348-6.873 1.277-13.222 6.654-18.448-3.951-6.8-7.733-8.785-7.994-13.972 0 0-34.81 14.42-28.66 32.42h.01a13.585 13.585 0 0 0 2.33 4.8c14.34 21.06 3.6 13.32 9.72 33.77 1.61 5.41 3.59 8.12 5.92 9.4 6.03 3.32 14.438-2.682 25.106 5.254z" fill="#bcbba6"/><path d="m338.3 410.47c2.33 7.93-.62 15.81-5.69 23.85l-.02.02c-1.08 1.73-2.27 3.46-3.52 5.2a56.9 56.9 0 0 1 -33.04 22.19 54.425 54.425 0 0 1 -33.85-2.81c-1.03-.44-2.03-.9-3-1.4a29.624 29.624 0 0 1 -14.75-16.15c-4.99-12.12-6.38-26.66 1.94-42.17a62.624 62.624 0 0 1 5.25-8.18c17.3-23.03 32.12 13.92 46.58.06 19.95-19.12 34.09-1.09 40.1 19.39z" fill="#769e4e"/></svg>