<svg id="Layer_1" height="512" viewBox="0 0 512 512" width="512" xmlns="http://www.w3.org/2000/svg" data-name="Layer 1"><path d="m495.72 296.68a1.5 1.5 0 0 1 .27 1.03c-2.28 26.37-25.76 75.68-86.55 100.22a37.4 37.4 0 0 0 -3.61-11.17c-3.71-9.03-7.6-15.89-11.76-20.99 1 .29 60.55 17.62 89.82-81.74a1.588 1.588 0 0 1 2.83-.45z" fill="#4d841e"/><path d="m409.44 397.93a37.4 37.4 0 0 0 -3.61-11.17c-3.71-9.03-7.6-15.89-11.76-20.99l-.01-.01c-19.7-24.15-45.59-9.1-88.21.99l-110.03 81.88c133.91 51 220.85-3.62 213.62-50.7z" fill="#ad2a34"/><path d="m299.33 44.28c17.02 31.47 9.09 74.82 9.09 74.82h-.01a131.025 131.025 0 0 0 -18.87-31.59 46.949 46.949 0 0 0 -3.58-26.72 2.656 2.656 0 0 1 .12-2.55l8.64-14.09a2.662 2.662 0 0 1 4.61.13z" fill="#8dc63f"/><path d="m285.69 116.63a84.885 84.885 0 0 1 8.82 24.99h-.01c-5.2 19.41-29.19 39.79-29.19 39.79a57.71 57.71 0 0 0 -22.66-6.42s37.44-28.38 43.04-58.36z" fill="#8dc63f"/><path d="m265.31 181.41a57.71 57.71 0 0 0 -22.66-6.42c-16.84-.83-36.12 7.95-49.29 43.75-20.93 56.86-32.02 86.2-61.14 101.63-10.11 5.37-22.4 9.06-38.02 11.64-.15.02-.29.05-.44.07-55.88 9.11-77.73-46.24-77.73-46.24s-5.83 100.82 143.3 110.53c20.75-9.09 41.19-24.99 57.77-51.7l27.922-36.662 32.988-118.528a70.951 70.951 0 0 0 -12.7-8.07z" fill="#fb6771"/><path d="m104.31 247.06s4.17 39.21 27.91 73.31c-10.11 5.37-22.4 9.06-38.02 11.64-5.56-45.53 10.11-84.95 10.11-84.95z" fill="#ad2a34"/><path d="m308.41 119.1c7.89 18.61 12.79 41.5 11.28 68.27a35.978 35.978 0 0 0 -11.64-1.56c-9.76-.49-17.62.11-24.02 1.7.43-.48 15.42-17.48 10.48-45.89a84.885 84.885 0 0 0 -8.82-24.99c-7.14-13.57-18.88-28.73-37.4-45.17a1.586 1.586 0 0 1 .8-2.75l15.68-2.56a1.564 1.564 0 0 1 1.06.19c7.25 4.21 15.69 11.33 23.71 21.17a131.025 131.025 0 0 1 18.87 31.59z" fill="#67a829"/><path d="m265.31 181.41a57.71 57.71 0 0 0 -22.66-6.42c-16.84-.83-36.12 7.95-49.29 43.75-20.93 56.86-32.02 86.2-61.14 101.63-10.11 5.37-22.4 9.06-38.02 11.64-.15.02-.29.05-.44.07-55.88 9.11-77.73-46.24-77.73-46.24s-1.391 24.279 14.8 50.154c-.033-.13-.066-.26-.1-.389a4.458 4.458 0 0 1 7.9-3.742c11.5 15.244 32.951 33.789 67.132 28.217.15-.02.29-.05.44-.07 15.62-2.58 27.91-6.27 38.02-11.64 29.12-15.43 40.21-44.77 61.14-101.63 13.17-35.8 32.45-44.58 49.29-43.75a54.61 54.61 0 0 1 18.364 4.44l5-17.95a70.951 70.951 0 0 0 -12.706-8.07z" fill="#d8525f"/><path d="m195.82 448.63c-79.69 17.58-142.57-49.53-142.57-49.53s54.03 20.07 106.08-2.73c20.75-9.09 41.19-24.99 57.77-51.7 48.68-78.42 23.46-139.66 60.91-155.19a42.068 42.068 0 0 1 6.02-1.97c6.4-1.59 14.26-2.19 24.02-1.7a35.978 35.978 0 0 1 11.64 1.56c39.37 12.15 51.68 93.06-13.84 179.38a336.182 336.182 0 0 1 -34.54 38.64c-25.85 24.91-51.43 37.94-75.49 43.24z" fill="#de3c44"/></svg>