<svg id="Layer_1" height="512" viewBox="0 0 512 512" width="512" xmlns="http://www.w3.org/2000/svg" data-name="Layer 1"><path d="m163.32 468.71c1.71 5.94-4.99 11.44-14.55 12.22 0 0 29.5 17.26 54.14.58a66.465 66.465 0 0 1 -23.76-8.72 39.634 39.634 0 0 1 -15.83-4.08z" fill="#b7b391"/><path d="m277.18 461.09a59.139 59.139 0 0 1 -24.76 4.88 62.326 62.326 0 0 1 -19.85 12.66s36.94 23.27 77.1-1.5l.01-.06c-20.92-4.06-32.5-15.98-32.5-15.98z" fill="#b7b391"/><path d="m340.04 458.37c-14.19 3.23-30.48-2.94-39.43-15.51a59.137 59.137 0 0 1 -23.43 18.23s11.58 11.92 32.5 15.98c11.14 2.16 24.92 2.1 41.01-3.18l.01-.01c-5.45-3.92-9.53-9.29-10.66-15.51z" fill="#ccc7a3"/><path d="m210.71 447.69c-3.42 12.76-14.84 25.56-31.56 25.1a66.465 66.465 0 0 0 23.76 8.72 56.274 56.274 0 0 0 29.66-2.88 62.326 62.326 0 0 0 19.85-12.66 59.353 59.353 0 0 1 -33.84-11.39 58.59 58.59 0 0 1 -7.87-6.89z" fill="#ccc7a3"/><path d="m350.38 141.6c-59.6-33.66-58.93-94.73-58.21-106.51a3.317 3.317 0 0 0 -1.66-3.09 83.027 83.027 0 0 0 -14.43-6.65s-10.34 68.87 61.14 147.52c93.74 103.14 113.56 191.31 16.82 278.3a31.071 31.071 0 0 1 -14 7.2c1.13 6.22 5.21 11.59 10.66 15.51a37.054 37.054 0 0 0 21.47 6.99c136.27-1.5 199.99-213.99-21.79-339.27z" fill="#f4eac3"/><path d="m274.83 116.59c-8.07-22-16.45-76.55-14.94-92.04-2.26 1.09-4.53 2.64-8.78 3.83a40.968 40.968 0 0 1 -6.63 1.48c1.92 29.01 6.46 75.08-8.22 111.74-18.95 47.34-77.91 169-38.8 284.26a59.138 59.138 0 0 0 21.12 28.72 59.4 59.4 0 0 0 82.03-11.72 58.278 58.278 0 0 0 9.09-17.09c37.88-113.22-20.74-270.61-34.87-309.18z" fill="#fff5cc"/><path d="m148.81 459.14c-28.45-23.88-62-70.45-50.25-140.17 15.8-93.68 66.96-131.7 110.79-200.49 6.72-10.53 26.17-35.66 19.91-90.03a27.269 27.269 0 0 0 -6.11.21 9.345 9.345 0 0 0 -7.88 9.45c.4 16.85-2.63 72.09-55.92 103.49-214.88 126.61-158.65 288.23-24 337.42a31.665 31.665 0 0 0 13.42 1.91c9.56-.78 16.26-6.28 14.55-12.22a68.66 68.66 0 0 1 -14.51-9.57z" fill="#fff5cc"/><path d="m234.05 29.04a38.465 38.465 0 0 0 -4.79-.59c6.26 54.37-13.19 79.5-19.91 90.03-43.83 68.79-94.99 106.81-110.79 200.49-11.75 69.72 21.8 116.29 50.25 140.17a68.66 68.66 0 0 0 14.51 9.57 39.634 39.634 0 0 0 15.83 4.08c16.72.46 28.14-12.34 31.56-25.1a58.756 58.756 0 0 1 -13.25-21.83c-39.11-115.26 19.85-236.92 38.8-284.26 14.68-36.66 10.14-82.73 8.22-111.74-2.7.3-5.53.07-10.43-.82z" fill="#efecb4"/><path d="m337.22 172.87c-71.48-78.65-61.14-147.52-61.14-147.52a46.061 46.061 0 0 0 -5.13-1.46c-5.78-1.28-8.41-.62-11.06.66-1.51 15.49 6.87 70.04 14.94 92.04 14.13 38.57 72.75 195.96 34.87 309.18a58.278 58.278 0 0 1 -9.09 17.09c8.95 12.57 25.24 18.74 39.43 15.51a31.071 31.071 0 0 0 14-7.2c96.74-86.99 76.92-175.16-16.82-278.3z" fill="#efecb4"/><path d="m189.35 141.6c2.779-1.637 5.413-3.343 7.925-5.1 4.064-5.8 8.1-11.78 12.075-18.019 6.72-10.53 26.17-35.66 19.91-90.03a27.269 27.269 0 0 0 -6.11.21 9.345 9.345 0 0 0 -7.88 9.45c.4 16.85-2.63 72.09-55.92 103.49-214.88 126.609-158.65 288.229-24 337.419a31.665 31.665 0 0 0 13.42 1.91 21.028 21.028 0 0 0 11.208-3.954c-130.735-51.476-182.626-210.464 29.372-335.376z" fill="#d8cfa7"/></svg>