<svg id="Layer_1" height="512" viewBox="0 0 512 512" width="512" xmlns="http://www.w3.org/2000/svg" data-name="Layer 1"><path d="m240.778 65.962-22.444-16.222 1.166-11.74 27.225 19.922z" fill="#436f1e"/><path d="m202.28 27.86 2.52 48.66 16.51.82v-61.34z" fill="#b28774"/><path d="m354.68 227.67-118.03-148.9h-.01c-5.69-1.2-11-1.95-15.33-2.43-6.59-.73-10.93-.81-10.93-.81s-2.03-.11-5.58-.01c-23.85.66-116.39 10.6-124.38 124.5-7.65 109.05 63.16 116.88 40.99 211.28-5.19 22.08-19.34 59.81 5.63 79.44 35.17 27.67 249.54-52.99 227.64-263.07z" fill="#f7ca72"/><path d="m432.16 236.23c-20.76-27.91-51.42-29.96-125.34-120.48-28.36-34.73-69.01-57.83-69.01-57.83s150.51-52.2 194.35 178.31z" fill="#739937"/><path d="m432.16 236.23s-32.45 7.42-77.48-8.56a203.155 203.155 0 0 1 -27.96-12.43c-76.91-41.29-89.26-104.13-90.07-136.47a110.437 110.437 0 0 1 1.16-20.85s40.65 23.1 69.01 57.83c73.92 90.52 104.58 92.57 125.34 120.48z" fill="#8dc63f"/><path d="m157.04 490.74c-24.97-19.63-10.82-57.36-5.63-79.44 22.17-94.4-48.64-102.23-40.99-211.28 6.951-99.092 77.889-119.495 111.923-123.56-.346-.041-.7-.083-1.033-.12-6.59-.73-10.93-.81-10.93-.81s-2.03-.11-5.58-.01c-23.85.66-116.39 10.6-124.38 124.5-7.65 109.05 63.16 116.88 40.99 211.28-5.19 22.08-19.34 59.81 5.63 79.44 6.839 5.381 20.456 6.663 37.793 3.7a22.073 22.073 0 0 1 -7.793-3.7z" fill="#c49d57"/></svg>